<?xml version="1.0" encoding="UTF-8" standalone="no"?>
<svg
   xmlns:dc="http://purl.org/dc/elements/1.1/"
   xmlns:cc="http://creativecommons.org/ns#"
   xmlns:rdf="http://www.w3.org/1999/02/22-rdf-syntax-ns#"
   xmlns:svg="http://www.w3.org/2000/svg"
   xmlns="http://www.w3.org/2000/svg"
   xmlns:sodipodi="http://sodipodi.sourceforge.net/DTD/sodipodi-0.dtd"
   xmlns:inkscape="http://www.inkscape.org/namespaces/inkscape"
   height="200"
   width="20"
   id="Layer_10"
   style="enable-background:new 0 0 128 128;"
   version="1.1"
   viewBox="0 0 128 128"
   xml:space="preserve"
   sodipodi:docname="pizza.svg"
   inkscape:version="1.0.1 (3bc2e813f5, 2020-09-07)"><metadata
     id="metadata37"><rdf:RDF><cc:Work
         rdf:about=""><dc:format>image/svg+xml</dc:format><dc:type
           rdf:resource="http://purl.org/dc/dcmitype/StillImage" /></cc:Work></rdf:RDF></metadata><defs
     id="defs35" /><sodipodi:namedview
     pagecolor="#ffffff"
     bordercolor="#666666"
     borderopacity="1"
     objecttolerance="10"
     gridtolerance="10"
     guidetolerance="10"
     inkscape:pageopacity="0"
     inkscape:pageshadow="2"
     inkscape:window-width="779"
     inkscape:window-height="480"
     id="namedview33"
     showgrid="false"
     inkscape:zoom="4.15"
     inkscape:cx="18.611521"
     inkscape:cy="97.663216"
     inkscape:window-x="818"
     inkscape:window-y="162"
     inkscape:window-maximized="0"
     inkscape:current-layer="Layer_10" /><style
     type="text/css"
     id="style2">
	.st0{fill:#F9C467;}
	.st1{fill:#F4A321;}
	.st2{fill:#996200;}
	.st3{fill:#774F00;}
	.st4{fill:#B75615;}
	.st5{fill:#176B00;}
	.st6{fill:#DDDD00;}
	.st7{fill:#231F20;}
</style><g
     id="g53"
     transform="matrix(0,0.90660641,-0.85234561,0,114.77647,-7.0370913)"><path
       class="st0"
       d="m 20.84192,88.779584 c -2.512427,4.234188 -4.638325,9.11981 -8.310333,12.376876 20.292673,16.93679 63.970237,14.49398 86.968604,3.74564 3.865259,-1.79139 8.503589,-5.374172 12.562129,-7.491274 C 101.43282,80.799746 94.47533,63.70011 88.097639,45.460492 84.425629,35.200707 80.560354,25.103776 76.501824,15.006845 74.569189,10.284088 73.02308,5.3984758 70.703917,0.83857093 70.510654,0.35001019 68.19149,-6.1641385 67.998227,-6.0012848 67.418436,-3.8841872 66.258855,-0.13855049 66.065591,0.5128638 60.074421,21.520994 49.251662,41.063441 38.428903,60.605888 32.82426,70.539966 26.639827,79.171211 20.84192,88.779584 Z"
       id="path4"
       style="stroke-width:1.77408" /><path
       class="st1"
       d="M 92.156168,15.006845 C 90.416797,11.74977 83.845844,1.4899863 77.854671,-2.7442111 83.459313,8.0041353 85.005426,19.56675 89.450486,30.640804 c 8.696855,21.659544 14.688024,43.644797 28.603014,63.675803 0.57978,-0.16285 4.44505,-0.325699 5.02484,-0.488568 C 114.18822,76.565553 110.51621,58.977351 103.75198,41.063441 100.4665,32.432194 96.40797,23.149532 92.156168,15.006845 Z"
       id="path6"
       style="stroke-width:1.77408" /><path
       class="st2"
       d="m 141.63164,106.20493 -67.642242,34.03642 c -7.344015,-1.46569 -41.551664,-6.83986 -48.509153,-9.60836 -6.764225,-2.76852 -15.461085,-4.72277 -21.6455187,-8.7941 -3.86527091,-2.60566 -7.9238061,-6.67701 -7.1507521,-12.70261 0.5797907,-5.53702 8.8901243,-7.65411 13.5284488,-6.83983 14.881295,15.30824 36.140286,15.14538 56.046432,13.84256 11.982335,-0.81427 23.384883,-2.60567 34.207645,-7.49128 9.08339,-4.07135 27.44344,-16.448225 36.72008,-8.30554 2.7057,2.11711 4.05853,4.07134 4.44506,5.86274 z"
       id="path8"
       style="stroke-width:1.77408" /><path
       class="st3"
       d="m 134.86742,117.11612 c -6.18443,5.69988 -12.1756,10.5855 -19.90615,13.84257 -14.10824,5.86274 -29.569325,8.63124 -44.643879,8.63124 -7.923807,0 -63.1971846,-15.63394 -55.466641,-14.33112 33.241331,6.3513 87.93491,7.49127 120.59646,-22.47381 3.09222,-2.7685 3.86527,10.25979 -0.57979,14.33112 z"
       id="path10"
       style="stroke-width:1.77408" /><ellipse
       class="st4"
       cx="67.804955"
       cy="38.946346"
       id="circle12"
       rx="7.3440146"
       ry="6.1884413"
       style="stroke-width:1.77408" /><ellipse
       class="st4"
       cx="40.748066"
       cy="89.431015"
       id="circle14"
       rx="7.3440146"
       ry="6.1884413"
       style="stroke-width:1.77408" /><ellipse
       class="st4"
       cx="77.854668"
       cy="69.88855"
       id="circle16"
       rx="7.3440146"
       ry="6.1884413"
       style="stroke-width:1.77408" /><rect
       class="st5"
       height="13.608655"
       transform="matrix(0.87993589,0.47509244,-0.60527582,0.79601581,0,0)"
       width="7.2123303"
       x="78.508873"
       y="28.79664"
       id="rect18"
       style="stroke-width:1.78484" /><rect
       class="st5"
       height="14.230825"
       transform="matrix(-0.73343062,0.67976432,-0.79381631,-0.60815761,0,0)"
       width="6.913166"
       x="23.252316"
       y="-116.03474"
       id="rect20"
       style="stroke-width:1.78693" /><rect
       class="st5"
       height="9.5472631"
       transform="matrix(-0.73343062,0.67976432,-0.79381631,-0.60815761,0,0)"
       width="4.608777"
       x="-27.381849"
       y="-68.907845"
       id="rect22"
       style="stroke-width:1.78693" /><ellipse
       class="st6"
       cx="56.982208"
       cy="101.15646"
       id="circle24"
       rx="5.4113793"
       ry="4.5599041"
       style="stroke-width:1.77408" /><ellipse
       class="st6"
       cx="91.383118"
       cy="86.662491"
       id="circle26"
       rx="5.4113793"
       ry="4.5599041"
       style="stroke-width:1.77408" /><ellipse
       class="st6"
       cx="67.031906"
       cy="56.045982"
       id="circle28"
       rx="5.4113793"
       ry="4.5599041"
       style="stroke-width:1.77408" /><path
       class="st7"
       d="M 136.87144,91.417316 C 125.44851,69.296832 118.83523,46.037784 108.4143,23.591989 102.80304,11.71849 90.778901,-20.161043 69.135449,-12.02851 c -0.200404,0 -0.400806,0 -0.80161,0 -9.018106,-0.325301 -9.21851,9.7590411 -10.621325,14.8012119 C 54.305674,13.832949 49.896822,24.567893 44.686362,35.140188 39.275498,46.200434 33.063025,56.935379 26.65015,67.507673 21.43969,76.12816 15.628021,92.230575 4.405489,96.622148 c -0.2004024,0.162646 -0.4008047,0.162646 -0.8016083,0.325301 -6.212473,0.975895 -11.4229354,4.391561 -14.0281647,9.921691 -4.809657,10.73494 5.811667,16.75301 16.0321883,21.63253 25.4510977,12.52411 56.3130587,17.24098 85.7722067,13.66266 14.428969,-1.78916 30.461149,-5.20482 42.284899,-12.5241 7.41488,-4.71686 19.63943,-11.5482 19.83982,-20.16868 0.20042,-7.31928 -7.61528,-15.939769 -16.63339,-18.054234 z M 94.185734,18.387169 c 4.008052,7.807231 7.414896,15.614464 10.420926,23.746999 6.21247,16.75302 12.62536,33.343389 20.64145,49.60846 -0.60121,0.162637 -1.20242,0.325301 -1.80362,0.487947 C 110.81913,73.525748 105.00747,52.706461 96.991375,32.375127 92.983323,22.128132 89.17568,11.393188 84.165629,1.3088451 88.77488,6.8389688 92.582523,15.296805 94.185734,18.387169 Z M 42.882741,61.001646 C 53.504066,42.459469 62.922976,23.429339 68.935045,3.5859559 c 0.200404,-0.6506039 1.202414,-4.06626666 1.803621,-6.1807251 0.200402,0 0.200402,0 0.400805,0 0.601206,2.27710858 2.004024,6.1807251 2.204426,6.6686779 2.404831,4.3915671 3.807644,8.9457863 5.811669,13.3373563 4.008046,9.596389 7.81569,19.192779 11.422926,28.789169 6.412883,17.240972 12.424948,34.481944 23.046288,50.421714 -4.00806,2.114454 -8.0161,4.391562 -11.62334,6.018072 -22.645471,10.08434 -64.128759,13.1747 -84.168994,-2.927714 3.40684,-3.253013 6.012072,-7.156629 8.4169,-11.060243 5.611265,-9.271091 11.222531,-18.379529 16.633395,-27.650617 z m 91.984679,56.114474 c -6.01206,4.39158 -12.02414,8.13255 -19.43902,10.73495 -13.82777,4.55422 -28.857951,6.66868 -43.687723,6.66868 -15.030173,-0.16269 -29.859948,-2.43976 -43.687709,-6.99398 -6.613278,-2.11446 -13.226556,-4.87952 -19.2386269,-8.13254 -3.8076451,-1.95181 -9.61931225,-3.90361 -9.01810632,-8.62048 0.60120808,-4.22892 5.61126602,-5.85542 10.02011792,-5.04216 14.4289693,11.87349 38.4772513,14.31325 58.1166803,13.33734 11.623339,-0.6506 23.246678,-2.60241 33.868007,-6.50603 8.81769,-3.25301 26.45311,-17.240957 35.47121,-10.89759 8.0161,5.53012 4.20845,10.89759 -2.40483,15.45181 z"
       id="path30"
       style="stroke-width:1.80543" /></g></svg>
